{"title":"Nanny Mcphee and The Big Bang 2010 BDRip 720p Multilanguage","uid":15333255,"size":6551381847,"categoryP":"video","categoryS":"hd___movies","magnet":"?xt=urn:btih:3a7d412a5b378e85bea84fa5fdc730d74b8a8e66&amp;dn=Nanny+Mcphee+and+The+Big+Bang+2010+BDRip+720p+Multilanguage&amp;tr=udp%3A%2F%2Ftracker.leechers-paradise.org%3A6969&amp;tr=udp%3A%2F%2Fzer0day.ch%3A1337&amp;tr=udp%3A%2F%2Fopen.demonii.com%3A1337&amp;tr=udp%3A%2F%2Ftracker.coppersurfer.tk%3A6969&amp;tr=udp%3A%2F%2Fexodus.desync.com%3A6969","seeders":1,"leechers":2,"uploader":null,"files":1,"time":1468759722,"description":"Audio: English\r\nSubtitles/legendas: Português BR/PT, English, Danish, Dutch, Finnish, German, Greek, Icelandic, Italian, Norwegian, Spanish, Swedish\r\n\r\n====================================================\r\nNanny McPhee arrives to help a harried young mother who is trying to run the family farm while her husband is away at war, though she uses her magic to teach the woman's children and their two spoiled cousins five new lessons. \r\n\r\n=====================================================\r\nUma jovem mãe luta para criar seus filhos ao mesmo tempo em que cuida de sua fazenda, enquanto seu marido está na guerra. Tudo fica ainda pior com a chegada de dois sobrinhos mimados. A difícil situação só será aliviada com a chegada da inusitada Nanny McPhee (Emma Thompson), que ajudará na educação das crianças e nos afazeres domésticos. Com suas magias, McPhee encanta a mãe e suas crianças.\r\n\r\n=====================================================\r\n\r\nVideo\r\nID                             : 1\r\nFormat                         : AVC\r\nFormat/Info                    : Advanced Video Codec\r\nFormat profile                 :   \r\nFormat settings, CABAC         : Yes\r\nFormat settings, ReFrames      : 12 frames\r\nCodec ID                       : V_MPEG4/ISO/AVC\r\nDuration                       : 1h 49mn\r\nBit rate                       : 7 190 Kbps\r\nWidth                          : 1 280 pixels\r\nHeight                         : 532 pixels\r\nDisplay aspect ratio           : 2.40:1\r\nFrame rate mode                : Constant\r\nFrame rate                     : 23.976 fps\r\nColor space                    : YUV\r\nChroma subsampling             : 4:2:0\r\nBit depth                      : 8 bits\r\nScan type                      : Progressive\r\nBits/(Pixel*Frame)             : 0.440\r\nStream size                    : 5.49 GiB (90%)\r\n\r\n\r\nAudio\r\nID                             : 2\r\nFormat                         : AC-3\r\nFormat/Info                    : Audio Coding 3\r\nMode extension                 : CM (complete main)\r\nFormat settings, Endianness    : Big\r\nCodec ID                       : A_AC3\r\nDuration                       : 1h 49mn\r\nBit rate mode                  : Constant\r\nBit rate                       : 640 Kbps\r\nChannel(s)                     : 6 channels\r\nChannel positions              : Front: L C R, Side: L R, LFE\r\nSampling rate                  : 48.0 KHz\r\nBit depth                      : 16 bits\r\nCompression mode               : Lossy\r\nStream size                    : 501 MiB (8%)\r\nLanguage                       : English\r\nDefault                        : Yes\r\nForced                         : No","torrent":{"xt":"urn:btih:3a7d412a5b378e85bea84fa5fdc730d74b8a8e66","amp;dn":"Nanny+Mcphee+and+The+Big+Bang+2010+BDRip+720p+Multilanguage","amp;tr":["udp%3A%2F%2Ftracker.leechers-paradise.org%3A6969","udp%3A%2F%2Fzer0day.ch%3A1337","udp%3A%2F%2Fopen.demonii.com%3A1337","udp%3A%2F%2Ftracker.coppersurfer.tk%3A6969","udp%3A%2F%2Fexodus.desync.com%3A6969"],"infoHash":"3a7d412a5b378e85bea84fa5fdc730d74b8a8e66","infoHashBuffer":{"type":"Buffer","data":[58,125,65,42,91,55,142,133,190,168,79,165,253,199,48,215,75,138,142,102]},"announce":[],"urlList":[]}}